<svg width="363" height="126" viewBox="0 0 363 126" fill="none" xmlns="http://www.w3.org/2000/svg">
<path d="M19.12 48.92V11.88H24.24C36.32 11.88 41.36 18.2 41.36 29.96V30.6C41.36 42.44 35.92 48.92 24.4 48.92H19.12ZM6.16 59H24.8C44.88 59 54.88 47.56 54.88 30.44V29.8C54.88 12.68 44.96 1.8 24.88 1.8H6.16V59ZM85.6469 49.56C76.2869 49.56 69.5669 42.36 69.5669 30.68V30.04C69.5669 18.52 75.5669 11.24 85.4869 11.24C95.4869 11.24 101.407 18.84 101.407 29.96V30.6C101.407 42.12 95.3269 49.56 85.6469 49.56ZM85.4069 59.88C103.247 59.88 114.927 47.48 114.927 30.44V29.8C114.927 12.6 102.687 0.999998 85.4869 0.999998C68.5269 0.999998 56.0469 13.08 56.0469 30.12V30.76C56.0469 47.48 67.4869 59.88 85.4069 59.88ZM142.239 59.88C157.679 59.88 166.399 51.8 166.399 36.2V1.8H153.359V35.4C153.359 45.88 149.999 49.56 142.319 49.56C134.479 49.56 131.679 45.4 131.679 35.88V1.8H118.639V36.68C118.639 51.88 127.199 59.88 142.239 59.88ZM173.06 59H196.58C209.78 59 216.66 53.48 216.66 43V42.68C216.66 35 212.66 30.76 205.22 29.24C211.62 27.4 214.5 23 214.5 17V16.68C214.5 6.92 208.02 1.8 195.54 1.8H173.06V59ZM185.7 50.04V33.64H193.94C200.98 33.64 203.86 36.36 203.86 41.64V41.96C203.86 47.16 200.98 50.04 194.58 50.04H185.7ZM185.7 25.32V10.68H193.38C199.46 10.68 202.18 12.84 202.18 17.64V17.96C202.18 23.08 199.7 25.32 193.46 25.32H185.7ZM220.594 59H256.834V48.84H233.554V1.8H220.594V59ZM260.16 59H298.72V48.92H273.04V34.68H292.56V25.24H273.04V11.88H297.44V1.8H260.16V59Z" fill="white"/>
<path d="M343.88 77.08L343.88 114.12L338.76 114.12C326.68 114.12 321.64 107.8 321.64 96.04L321.64 95.4C321.64 83.56 327.08 77.08 338.6 77.08L343.88 77.08ZM356.84 67L338.2 67C318.12 67 308.12 78.44 308.12 95.56L308.12 96.2C308.12 113.32 318.04 124.2 338.12 124.2L356.84 124.2L356.84 67ZM277.353 76.44C286.713 76.44 293.433 83.64 293.433 95.32L293.433 95.96C293.433 107.48 287.433 114.76 277.513 114.76C267.513 114.76 261.593 107.16 261.593 96.04L261.593 95.4C261.593 83.88 267.673 76.44 277.353 76.44ZM277.593 66.12C259.753 66.12 248.073 78.52 248.073 95.56L248.073 96.2C248.073 113.4 260.313 125 277.513 125C294.473 125 306.953 112.92 306.953 95.88L306.953 95.24C306.953 78.52 295.513 66.12 277.593 66.12ZM220.761 66.12C205.321 66.12 196.601 74.2 196.601 89.8L196.601 124.2L209.641 124.2L209.641 90.6C209.641 80.12 213.001 76.44 220.681 76.44C228.521 76.44 231.321 80.6 231.321 90.12L231.321 124.2L244.361 124.2L244.361 89.32C244.361 74.12 235.801 66.12 220.761 66.12ZM189.94 67L166.42 67C153.22 67 146.34 72.52 146.34 83L146.34 83.32C146.34 91 150.34 95.24 157.78 96.76C151.38 98.6 148.5 103 148.5 109L148.5 109.32C148.5 119.08 154.98 124.2 167.46 124.2L189.94 124.2L189.94 67ZM177.3 75.96L177.3 92.36L169.06 92.36C162.02 92.36 159.14 89.64 159.14 84.36L159.14 84.04C159.14 78.84 162.02 75.96 168.42 75.96L177.3 75.96ZM177.3 100.68L177.3 115.32L169.62 115.32C163.54 115.32 160.82 113.16 160.82 108.36L160.82 108.04C160.82 102.92 163.3 100.68 169.54 100.68L177.3 100.68ZM142.406 67L106.166 67L106.166 77.16L129.446 77.16L129.446 124.2L142.406 124.2L142.406 67ZM102.84 67L64.28 67L64.28 77.08L89.96 77.08L89.96 91.32L70.44 91.32L70.44 100.76L89.96 100.76L89.96 114.12L65.56 114.12L65.56 124.2L102.84 124.2L102.84 67Z" fill="white"/>
</svg>
