<svg width="273" height="97" viewBox="0 0 273 97" fill="none" xmlns="http://www.w3.org/2000/svg">
<path d="M18.752 34.456C21.056 31.0427 24.2133 28.2693 28.224 26.136C32.32 24.0027 36.9707 22.936 42.176 22.936C48.2347 22.936 53.696 24.4293 58.56 27.416C63.5093 30.4027 67.392 34.6693 70.208 40.216C73.1093 45.6773 74.56 52.0347 74.56 59.288C74.56 66.5413 73.1093 72.984 70.208 78.616C67.392 84.1627 63.5093 88.472 58.56 91.544C53.696 94.616 48.2347 96.152 42.176 96.152C36.8853 96.152 32.2347 95.128 28.224 93.08C24.2987 90.9467 21.1413 88.216 18.752 84.888V95H0.832001L0.832001 0.279999L18.752 0.279999L18.752 34.456ZM56.256 59.288C56.256 55.0213 55.36 51.352 53.568 48.28C51.8613 45.1227 49.5573 42.7333 46.656 41.112C43.84 39.4907 40.768 38.68 37.44 38.68C34.1973 38.68 31.1253 39.5333 28.224 41.24C25.408 42.8613 23.104 45.2507 21.312 48.408C19.6053 51.5653 18.752 55.2773 18.752 59.544C18.752 63.8107 19.6053 67.5227 21.312 70.68C23.104 73.8373 25.408 76.2693 28.224 77.976C31.1253 79.5973 34.1973 80.408 37.44 80.408C40.768 80.408 43.84 79.5547 46.656 77.848C49.5573 76.1413 51.8613 73.7093 53.568 70.552C55.36 67.3947 56.256 63.64 56.256 59.288ZM146.206 24.088L146.206 95H128.158V86.04C125.854 89.112 122.825 91.544 119.07 93.336C115.401 95.0427 111.39 95.896 107.038 95.896C101.491 95.896 96.5847 94.744 92.318 92.44C88.0513 90.0507 84.6807 86.5947 82.206 82.072C79.8167 77.464 78.622 72.0027 78.622 65.688V24.088H96.542V63.128C96.542 68.76 97.95 73.112 100.766 76.184C103.582 79.1707 107.422 80.664 112.286 80.664C117.235 80.664 121.118 79.1707 123.934 76.184C126.75 73.112 128.158 68.76 128.158 63.128L128.158 24.088H146.206ZM173.487 35.096C175.791 31.3413 178.778 28.3973 182.447 26.264C186.202 24.1307 190.468 23.064 195.247 23.064V41.88H190.511C184.879 41.88 180.612 43.2027 177.711 45.848C174.895 48.4933 173.487 53.1013 173.487 59.672V95H155.567L155.567 24.088H173.487V35.096ZM216.917 34.456C219.221 31.0427 222.378 28.2693 226.389 26.136C230.485 24.0027 235.136 22.936 240.341 22.936C246.4 22.936 251.861 24.4293 256.725 27.416C261.674 30.4027 265.557 34.6693 268.373 40.216C271.274 45.6773 272.725 52.0347 272.725 59.288C272.725 66.5413 271.274 72.984 268.373 78.616C265.557 84.1627 261.674 88.472 256.725 91.544C251.861 94.616 246.4 96.152 240.341 96.152C235.05 96.152 230.4 95.128 226.389 93.08C222.464 90.9467 219.306 88.216 216.917 84.888V95H198.997L198.997 0.279999H216.917V34.456ZM254.421 59.288C254.421 55.0213 253.525 51.352 251.733 48.28C250.026 45.1227 247.722 42.7333 244.821 41.112C242.005 39.4907 238.933 38.68 235.605 38.68C232.362 38.68 229.29 39.5333 226.389 41.24C223.573 42.8613 221.269 45.2507 219.477 48.408C217.77 51.5653 216.917 55.2773 216.917 59.544C216.917 63.8107 217.77 67.5227 219.477 70.68C221.269 73.8373 223.573 76.2693 226.389 77.976C229.29 79.5973 232.362 80.408 235.605 80.408C238.933 80.408 242.005 79.5547 244.821 77.848C247.722 76.1413 250.026 73.7093 251.733 70.552C253.525 67.3947 254.421 63.64 254.421 59.288Z" fill="white"/>
</svg>
